<?xml version="1.0" encoding="UTF-8" standalone="no"?>
<!-- Created with Inkscape (http://www.inkscape.org/) -->
<svg
   xmlns:svg="http://www.w3.org/2000/svg"
   xmlns="http://www.w3.org/2000/svg"
   version="1.0"
   width="593.11536"
   height="193.49118"
   id="svg2">
  <defs
     id="defs4" />
  <g
     transform="translate(-73.760669,-434.6535)"
     id="layer1">
    <path
       d="M 664.87605,557.39687 L 664.6758,597.60044 L 282.11372,626.14468 L 75.760669,496.58372 L 75.960923,456.38015 L 282.31398,582.40558 L 664.87605,557.39687 z"
       id="path3247"
       style="fill:#784421;fill-opacity:1;fill-rule:nonzero;stroke:#000000;stroke-width:4;stroke-linecap:round;stroke-linejoin:round;stroke-miterlimit:4;stroke-opacity:1" />
    <path
       d="M 75.960923,456.38015 L 408.63532,436.6535 L 664.87605,557.39687 L 282.31398,582.40558 L 75.960923,456.38015 z"
       id="path3245"
       style="fill:#784421;fill-opacity:1;fill-rule:nonzero;stroke:#000000;stroke-width:4;stroke-linecap:round;stroke-linejoin:round;stroke-miterlimit:4;stroke-opacity:1" />
    <path
       d="M 664.87605,557.39687 L 664.6758,597.60044 L 282.11372,626.14468 L 282.31398,582.40558 L 664.87605,557.39687 z"
       id="path3243"
       style="fill:#502d16;fill-opacity:1;fill-rule:nonzero;stroke:#000000;stroke-width:4;stroke-linecap:round;stroke-linejoin:round;stroke-miterlimit:4;stroke-opacity:1" />
    <path
       d="M 133.76492,468.7916 L 161.26358,484.29173 L 404.63862,466.50766 L 554.35149,538.58853 L 580.63913,536.87007 L 405.02967,449.54386 L 133.76492,468.7916 z"
       id="path3239"
       style="fill:#502d16;fill-opacity:1;fill-rule:nonzero;stroke:#000000;stroke-width:4;stroke-linecap:round;stroke-linejoin:round;stroke-miterlimit:4;stroke-opacity:1" />
    <path
       d="M 404.63862,466.50766 L 554.35149,538.58853 L 580.63913,536.87007 L 405.02967,449.54386 L 404.63862,466.50766 z"
       id="path3222"
       style="fill:#784421;fill-opacity:1;fill-rule:nonzero;stroke:#000000;stroke-width:4;stroke-linecap:round;stroke-linejoin:round;stroke-miterlimit:4;stroke-opacity:1" />
    <path
       d="M 404.625,466.5 C 382.25719,468.14313 359.97863,458.93699 336.88331,462.76519 C 313.78799,466.59339 307.57493,473.60036 279.63707,475.64185 C 251.20186,477.71969 206.45875,463.63778 161.28125,484.28125 L 289.6875,556.6875 L 580.625,536.875 L 554.34375,538.59375 C 554.34375,538.59375 482.33076,487.98375 456.91844,483.56992 C 431.71626,479.19259 404.625,466.5 404.625,466.5 z"
       id="path3253"
       style="fill:#ffdd55;fill-opacity:1;fill-rule:nonzero;stroke:#000000;stroke-width:4;stroke-linecap:round;stroke-linejoin:round;stroke-miterlimit:4;stroke-opacity:1" />
    <path
       d="M 357.10871,505.28286 C 365.35871,508.78286 392.10871,498.78286 405.10871,498.78286 C 418.10871,498.78286 426.10871,488.78286 413.10871,483.28286 C 400.10871,477.78286 377.10871,476.28286 367.60871,485.78286 C 358.10871,495.28286 348.85871,501.78286 357.10871,505.28286 z"
       id="path3256"
       style="fill:#000000;fill-opacity:0.09803922;fill-rule:evenodd;stroke:none;stroke-width:1px;stroke-linecap:butt;stroke-linejoin:miter;stroke-opacity:1" />
    <path
       d="M 296.73855,507.76256 C 275.80543,511.18152 271.57882,526.4196 260.10559,524.47748 C 248.63236,522.53536 230.94875,510.04186 239.92009,505.86313 C 248.89142,501.6844 270.91022,509.30804 283.28154,498.26544 C 295.65286,487.22285 317.67166,504.3436 296.73855,507.76256 z"
       id="path3258"
       style="fill:#000000;fill-opacity:0.09803922;fill-rule:evenodd;stroke:none;stroke-width:1px;stroke-linecap:butt;stroke-linejoin:miter;stroke-opacity:1" />
    <path
       d="M 479.15625,510.53125 C 467.54005,510.60584 456.96875,512.125 452.375,516.28125 C 441.87499,525.78123 433.375,540.28125 412.375,538.78125 C 391.37499,537.28123 367.875,528.78125 368.375,543.78125 C 368.47026,546.63918 371.22585,548.96939 375.65625,550.84375 L 489.125,543.09375 C 513.59413,536.08974 539.65605,528.51823 537,526.8125 C 536.95441,526.78322 536.91967,526.74841 536.875,526.71875 C 536.86365,526.71122 536.85511,526.69504 536.84375,526.6875 C 531.51339,523.15108 525.24824,519.08323 518.625,514.90625 C 518.61623,514.90383 518.60254,514.90867 518.59375,514.90625 C 510.71716,512.73658 494.07471,510.43546 479.15625,510.53125 z"
       id="path3260"
       style="fill:#000000;fill-opacity:0.09803922;fill-rule:evenodd;stroke:none;stroke-width:1px;stroke-linecap:butt;stroke-linejoin:miter;stroke-opacity:1" />
    <g
       transform="translate(26.152542,-23.273863)"
       id="g3305">
      <path
         d="M 322.5,507.11218 C 333.5,511.61218 347.75,510.61218 349.5,505.86218 C 351.25,501.11218 365.75,503.86218 365.75,503.86218 L 369.25,496.11218 C 369.25,496.11218 352.5,499.86218 348.25,495.61218 C 344,491.36218 328.5,493.86218 328.5,493.86218 L 322.5,507.11218 z"
         transform="translate(-26.152542,23.273863)"
         id="path3314"
         style="fill:#000000;fill-opacity:0.39215686;fill-rule:evenodd;stroke:none;stroke-width:1px;stroke-linecap:butt;stroke-linejoin:miter;stroke-opacity:1" />
      <path
         d="M 318.30898,481.42519 C 313.05933,480.88304 305.29781,499.4977 302.27378,503.09364 C 299.47728,506.41903 295.09297,495.20524 285.6905,506.03791 C 276.05628,517.13758 279.20396,519.72412 287.17052,526.9779 C 290.51686,530.02264 304.82911,530.5342 308.65331,525.96903 C 318.44706,514.68556 306.53764,512.24503 309.23579,509.13648 C 311.93488,506.02683 328.65186,495.1508 328.43338,490.21291 C 328.21491,485.27501 323.55863,481.96734 318.30898,481.42519 z"
         id="path3286"
         style="fill:#ff00ff;fill-opacity:1;fill-rule:evenodd;stroke:#000000;stroke-width:4;stroke-linecap:butt;stroke-linejoin:round;stroke-miterlimit:4;stroke-dasharray:none;stroke-opacity:1" />
      <path
         d="M 293.44932,505.41509 C 290.09056,506.21059 283.37305,515.13781 283.7266,517.25913 C 284.08015,519.38046 289.652,516.24059 291.68155,513.37004 C 293.79357,510.38283 296.80808,504.6196 293.44932,505.41509 z"
         id="path3292"
         style="fill:#000000;fill-opacity:0.39215686;fill-rule:evenodd;stroke:none;stroke-width:1px;stroke-linecap:butt;stroke-linejoin:miter;stroke-opacity:1" />
      <path
         d="M 309.08309,504.62234 C 310.31685,505.32684 324.84736,491.13684 324.993,489.7731 C 325.13945,488.40177 324.4959,487.24722 323.09135,487.56968 C 321.80525,487.86495 307.8994,503.94643 309.08309,504.62234 z"
         id="path3294"
         style="fill:#000000;fill-opacity:0.39215686;fill-rule:evenodd;stroke:none;stroke-width:1px;stroke-linecap:butt;stroke-linejoin:miter;stroke-opacity:1" />
    </g>
    <g
       transform="translate(10.474873,-1.2928935)"
       id="g3300">
      <path
         d="M 353.59355,533.33222 C 362.59355,530.58222 373.59355,529.08222 380.34355,533.58222 C 385.88231,537.27473 397.69855,533.7672 397.84355,524.33222 C 397.95239,516.8748 383.34355,515.08222 383.34355,515.08222 L 353.59355,533.33222 z"
         id="path3312"
         style="fill:#000000;fill-opacity:0.39215686;fill-rule:evenodd;stroke:none;stroke-width:1px;stroke-linecap:butt;stroke-linejoin:miter;stroke-opacity:1" />
      <path
         d="M 350.09419,494.27596 C 348.98822,498.40351 346.97472,519.09223 346.08546,522.41099 C 345.1962,525.72976 349.88385,534.49982 357.06328,529.22356 C 365.66941,522.89877 378.62936,527.33033 379.51863,524.01155 C 380.40789,520.69279 386.75697,508.52362 387.86294,504.39606 C 388.96892,500.2685 381.40633,494.65168 370.98216,491.85853 C 360.55799,489.06538 351.20016,490.14838 350.09419,494.27596 z"
         id="path3271"
         style="fill:#00d400;fill-opacity:1;fill-rule:nonzero;stroke:#000000;stroke-width:4.90946817;stroke-linecap:round;stroke-linejoin:round;stroke-miterlimit:4;stroke-opacity:1" />
      <path
         d="M 398.01203,479.35843 A 22.887545,9.0216522 0 1 1 352.23694,479.35843 A 22.887545,9.0216522 0 1 1 398.01203,479.35843 z"
         transform="matrix(-0.825094,-0.2210833,-0.222086,0.8288364,784.95042,184.96002)"
         id="path3267"
         style="fill:#008000;fill-opacity:1;fill-rule:nonzero;stroke:#000000;stroke-width:4.67215872;stroke-linecap:round;stroke-linejoin:round;stroke-miterlimit:4;stroke-dasharray:none;stroke-opacity:1" />
      <path
         d="M 380.0699,511.24872 C 378.35003,510.64676 371.23107,510.01129 370.34718,516.37525 C 369.43921,522.91268 374.13402,522.33545 376.18081,521.32499 C 378.29283,520.28232 381.83767,511.86744 380.0699,511.24872 z"
         id="path3296"
         style="fill:#000000;fill-opacity:0.39215686;fill-rule:evenodd;stroke:none;stroke-width:1px;stroke-linecap:butt;stroke-linejoin:miter;stroke-opacity:1" />
      <path
         d="M 366.63487,494.80849 C 364.77639,492.69658 355.52208,493.21545 353.90694,494.98527 C 352.08416,496.98263 362.64353,503.06679 364.69032,502.05633 C 366.80234,501.01366 368.57941,497.0182 366.63487,494.80849 z"
         id="path3310"
         style="fill:#000000;fill-opacity:0.39215686;fill-rule:evenodd;stroke:none;stroke-width:1px;stroke-linecap:butt;stroke-linejoin:miter;stroke-opacity:1" />
    </g>
  </g>
</svg>
